<?xml version="1.0" standalone="no"?>
<!DOCTYPE svg PUBLIC "-//W3C//DTD SVG 20010904//EN"
 "http://www.w3.org/TR/2001/REC-SVG-20010904/DTD/svg10.dtd">
<svg version="1.0" xmlns="http://www.w3.org/2000/svg"
 width="906.000000pt" height="906.000000pt" viewBox="0 0 906.000000 906.000000"
 preserveAspectRatio="xMidYMid meet">
<metadata>
Created by potrace 1.11, written by Peter Selinger 2001-2013
</metadata>
<g transform="translate(0.000000,906.000000) scale(0.100000,-0.100000)"
fill="#000000" stroke="none">
<path d="M4298 8975 c-1 -2 -43 -6 -93 -10 -49 -3 -97 -8 -105 -10 -8 -2 -35
-6 -60 -9 -48 -6 -91 -13 -126 -21 -12 -3 -38 -7 -59 -11 -21 -3 -49 -10 -62
-15 -13 -5 -23 -7 -23 -4 0 12 -381 -102 -465 -139 -33 -15 -62 -27 -65 -28
-54 -7 -541 -253 -570 -288 -3 -4 -12 -9 -20 -12 -14 -6 -232 -155 -255 -175
-5 -5 -35 -28 -65 -52 -69 -54 -146 -119 -177 -149 -12 -13 -23 -21 -23 -19 0
6 -226 -220 -295 -294 -112 -122 -335 -406 -335 -427 0 -6 -3 -12 -7 -14 -16
-6 -96 -127 -187 -281 -49 -83 -205 -384 -211 -407 -1 -3 -14 -32 -29 -65 -16
-33 -33 -71 -38 -85 -6 -14 -17 -37 -25 -52 -8 -16 -11 -28 -7 -28 3 0 1 -7
-6 -15 -7 -8 -9 -15 -5 -15 4 0 3 -6 -3 -12 -8 -11 -67 -167 -76 -203 -2 -5
-6 -17 -9 -25 -10 -27 -57 -176 -62 -196 -2 -10 -18 -71 -35 -134 -30 -114
-77 -334 -86 -400 -3 -19 -7 -46 -9 -60 -3 -14 -7 -45 -10 -70 -3 -25 -8 -54
-10 -66 -5 -21 -13 -89 -20 -164 -33 -358 -24 -896 20 -1175 3 -16 7 -48 10
-70 5 -35 14 -91 32 -200 3 -16 18 -88 35 -160 16 -71 31 -138 33 -147 14 -63
105 -374 125 -423 4 -11 40 -101 79 -200 94 -240 237 -528 361 -725 92 -146
270 -402 300 -430 3 -3 41 -48 85 -100 112 -133 258 -285 376 -391 15 -13 42
-38 60 -54 88 -79 282 -227 399 -305 12 -8 33 -23 45 -32 13 -10 26 -18 30
-18 4 0 19 -8 33 -19 15 -10 44 -28 65 -40 20 -11 54 -31 75 -42 46 -27 230
-119 294 -148 179 -80 483 -183 617 -207 12 -3 51 -11 85 -19 79 -18 128 -27
261 -45 223 -30 584 -33 810 -6 579 69 1108 271 1609 614 92 62 288 213 327
252 14 14 43 40 65 58 102 86 263 253 389 402 44 52 82 97 85 100 3 3 30 39
60 80 30 41 57 77 60 80 3 3 33 46 66 95 389 574 657 1257 768 1958 14 90 18
119 31 222 36 303 41 838 9 1090 -3 22 -11 90 -19 150 -8 61 -17 133 -20 160
-3 28 -8 57 -10 65 -2 8 -7 29 -9 45 -12 66 -37 190 -51 245 -3 11 -7 28 -9
38 -2 9 -14 53 -25 97 -12 44 -24 90 -27 103 -2 12 -13 46 -23 75 -10 29 -28
81 -39 117 -22 69 -76 221 -91 255 -5 11 -26 61 -47 110 -37 91 -165 356 -207
430 -74 132 -99 173 -183 300 -108 164 -143 214 -165 235 -8 8 -18 23 -22 33
-3 9 -11 17 -17 17 -5 0 -10 5 -10 11 0 6 -15 28 -32 48 -18 20 -45 52 -61 71
-69 87 -268 295 -383 400 -68 63 -218 187 -284 235 -30 21 -58 44 -62 50 -4 5
-8 6 -8 2 0 -5 -8 -1 -17 9 -20 19 -187 130 -243 160 -19 10 -37 21 -40 24 -8
8 -81 48 -150 83 -36 17 -68 36 -71 40 -3 5 -9 8 -13 8 -3 0 -36 13 -73 30
-172 79 -440 175 -568 205 -5 1 -48 11 -95 23 -73 17 -160 35 -285 56 -16 2
-55 7 -85 11 -30 3 -66 8 -80 11 -28 5 -536 13 -542 8z"/>
</g>
</svg>
